<svg version="1" xmlns="http://www.w3.org/2000/svg" width="493.333" height="493.333" viewBox="0 0 370.000000 370.000000"><path d="M94 5.5c0 .6-1.5 1.7-3.4 2.3-8.2 3-8.4 10-.3 16.3 2.9 2.2 5.9 4.6 6.7 5.2.8.7 3.1 2.3 5 3.7 1.9 1.4 4.4 3.2 5.5 4.1 1.1 1 7.6 6.1 14.5 11.5s13.6 10.9 15 12.2c1.4 1.3 4.6 3.9 7.2 5.9 2.6 2 4.6 3.8 4.5 4-.2.1-2.8-.7-5.8-1.8-11.5-4.5-31.5-11.5-57.4-20.2-22.6-7.5-28.1-9-33.5-9-8-.1-13.7 2.3-15.5 6.6-2.7 6.6 1.2 10.1 22 19.7 41.8 19.4 85.9 42.6 115.4 60.8 9.6 5.8 27.2 17.4 29.6 19.4.5.5 3.3 2.5 6 4.5 5.2 3.9 10 8 14.6 12.4 2.7 2.5 2.7 2.8 2.4 13-.2 5.7-.6 11.5-.9 12.9-.6 2.6-1.3 6.2-2.2 11.5-1.1 5.8-9.4 29.5-14.9 42.2-8.3 19-23.3 46.8-35.3 65.7-2.1 3.2-3.2 6.3-3.2 8.6 0 9.2 11.7 17.3 25.6 17.9 8.7.3 12.3-1.6 23.8-13.2 11.8-11.8 36.9-39.7 40-44.4 1.1-1.8 2.3-3.3 2.6-3.3 1.3 0 1.8 50.4.7 65.9-.6 7.9.5 12.4 4 15.9 10 10.2 30.8 12.9 38 4.9 2-2.2 4.9-10.1 9.6-25.7 3.2-10.6 5.6-18.9 5.7-19.5 0-.3 0-.6.1-.8 0-.1.2-1 .4-2.1.2-1 .9-3.9 1.5-6.5.6-2.5 1.2-5.5 1.5-6.6.2-1.1 1-5.2 1.8-9 .9-3.9 1.8-8.8 2.1-10.9.4-2.1.8-4.8 1.1-6 .7-3.3 2.1-15.5 3-26.1.2-2.2.4-4.2.6-4.5.6-1.3.4-29-.2-29-.4 0-.6-.8-.5-1.7.4-2.7-2.3-18.3-4.5-25.8-2.7-9.2-7.9-20-12.3-25.9-2-2.5-3.6-5-3.6-5.5s-2.6-4.9-5.8-9.8c-10.6-16.1-33.7-37.1-65.7-59.9-13.3-9.4-26.9-18.7-30.7-20.9-1-.6-8-4.9-15.5-9.6-13.1-8.2-37-22.4-47.8-28.4-15.1-8.4-31.1-17.1-32-17.4-.5-.2-1.9-.7-3-1.2-4.9-1.9-6.2-2.2-9.8-2.4-2-.1-4 .2-4.3.7-.4.6-1 .5-1.5-.3S94 5 94 5.5z"/></svg>